<?xml version="1.0" encoding="iso-8859-1"?>
<!-- Uploaded to: SVG Repo, www.svgrepo.com, Generator: SVG Repo Mixer Tools -->
<svg height="800px" width="800px" version="1.1" id="Layer_1" xmlns="http://www.w3.org/2000/svg" xmlns:xlink="http://www.w3.org/1999/xlink" 
	 viewBox="0 0 512 512" xml:space="preserve">
<path style="fill:#333E48;" d="M228.454,136.722L118.043,77.33c-1.93-1.038-4.253-1.038-6.182,0L3.434,135.653
	C1.319,136.791,0,138.999,0,141.4v330.333c0,4.936,5.27,8.085,9.617,5.747l102.243-54.997c1.931-1.038,4.253-1.038,6.182,0
	l110.412,59.392c0.95,0.511,2.013,0.778,3.092,0.778h273.929c3.604,0,6.525-2.922,6.525-6.525V144.026
	c0-3.604-2.921-6.525-6.525-6.525H231.546C230.467,137.501,229.405,137.233,228.454,136.722z"/>
<path style="fill:#77E0C1;" d="M229.562,170.586l-113.886-61.26c-0.452-0.243-0.997-0.243-1.449,0L34.073,152.44
	c-0.496,0.267-0.805,0.784-0.805,1.347v275.141c0,1.157,1.235,1.895,2.254,1.347l78.704-42.336c0.452-0.243,0.997-0.243,1.449,0
	l113.887,61.26c0.223,0.12,0.471,0.183,0.724,0.183h246.915c0.845,0,1.529-0.685,1.529-1.529V172.298
	c0-0.845-0.685-1.529-1.529-1.529H230.288C230.035,170.769,229.785,170.707,229.562,170.586z"/>
<polygon style="fill:#FFFFFF;" points="478.732,266.22 410.918,334.034 307.818,334.034 307.818,170.769 274.55,170.769 
	274.55,334.034 229.902,334.034 189.061,311.265 189.061,197.797 114.951,157.933 33.268,201.87 33.268,239.646 114.951,195.708 
	155.793,217.677 155.793,292.717 114.951,269.948 33.268,313.886 33.268,351.662 114.951,307.723 229.902,367.302 377.649,367.302 
	295.568,449.384 342.616,449.384 417.808,374.192 478.732,435.116 478.732,388.068 441.33,350.668 478.732,313.268 "/>
<path style="fill:#FF6361;" d="M400.831,292.861c13.615,0,94.306-98.625,94.306-169.208c0-52.084-42.222-94.306-94.306-94.306
	s-94.306,42.222-94.306,94.306C306.525,194.236,387.216,292.861,400.831,292.861z"/>
<path style="opacity:0.15;enable-background:new    ;" d="M324.937,110.035c0-26.976,11.344-51.287,29.501-68.476
	c-28.599,16.197-47.913,46.882-47.913,82.095c0,70.583,80.691,169.208,94.306,169.208c3.078,0,9.595-5.057,17.825-13.68
	C403.483,276.609,324.937,179.677,324.937,110.035z"/>
<circle style="fill:#FFFFFF;" cx="400.827" cy="123.659" r="33.335"/>
<path style="opacity:0.2;enable-background:new    ;" d="M228.454,136.722L118.043,77.33c-0.965-0.519-2.028-0.778-3.092-0.778
	v345.152c1.063,0,2.126,0.259,3.092,0.778l110.412,59.392c0.46,0.247,0.946,0.435,1.447,0.566V137.287
	C229.401,137.157,228.915,136.969,228.454,136.722z"/>
</svg>